<svg width="20" height="20" viewBox="0 0 20 20" fill="none" xmlns="http://www.w3.org/2000/svg">
<path d="M12.1747 4.03809C12.0929 3.38424 11.3205 3.07942 10.8143 3.50127L6.63168 6.98676C6.5568 7.04916 6.46241 7.08333 6.36494 7.08333H3.12498C2.54968 7.08333 2.08331 7.5497 2.08331 8.125V11.875C2.08331 12.4503 2.54968 12.9167 3.12498 12.9167H6.36494C6.46241 12.9167 6.5568 12.9508 6.63168 13.0132L10.8143 16.4987C11.3205 16.9206 12.0929 16.6158 12.1747 15.9619L12.2545 15.3232C12.6964 11.7881 12.6964 8.21186 12.2545 4.67684L12.1747 4.03809Z" fill="#FCFCFC"/>
<path d="M14.3645 8.08492C14.6086 7.84084 15.0043 7.84084 15.2484 8.08492L16.2796 9.11612L17.3108 8.08492C17.5549 7.84084 17.9506 7.84084 18.1947 8.08492C18.4388 8.329 18.4388 8.72472 18.1947 8.9688L17.1635 10L18.1947 11.0312C18.4388 11.2753 18.4388 11.671 18.1947 11.9151C17.9506 12.1592 17.5549 12.1592 17.3108 11.9151L16.2796 10.8839L15.2484 11.9151C15.0043 12.1592 14.6086 12.1592 14.3645 11.9151C14.1204 11.671 14.1204 11.2753 14.3645 11.0312L15.3957 10L14.3645 8.9688C14.1204 8.72472 14.1204 8.329 14.3645 8.08492Z" fill="#FCFCFC"/>
</svg>
