<svg width="20" height="20" viewBox="0 0 20 20" fill="none" xmlns="http://www.w3.org/2000/svg">
<path d="M12.1747 4.03809C12.0929 3.38424 11.3205 3.07942 10.8143 3.50127L6.63168 6.98676C6.5568 7.04916 6.46241 7.08333 6.36494 7.08333H3.12498C2.54968 7.08333 2.08331 7.5497 2.08331 8.125V11.875C2.08331 12.4503 2.54968 12.9167 3.12498 12.9167H6.36494C6.46241 12.9167 6.5568 12.9508 6.63168 13.0132L10.8143 16.4987C11.3205 16.9206 12.0929 16.6158 12.1747 15.9619L12.2545 15.3232C12.6964 11.7881 12.6964 8.21186 12.2545 4.67684L12.1747 4.03809Z" fill="#FCFCFC"/>
<path d="M16.5901 4.95481C16.9178 4.84642 17.2714 5.02422 17.3798 5.35194C17.8635 6.81442 18.125 8.3773 18.125 10C18.125 11.6227 17.8635 13.1856 17.3798 14.6481C17.2714 14.9758 16.9178 15.1536 16.5901 15.0452C16.2624 14.9368 16.0846 14.5833 16.193 14.2556C16.6353 12.9181 16.875 11.4877 16.875 10C16.875 8.51234 16.6353 7.08189 16.193 5.74445C16.0846 5.41673 16.2624 5.0632 16.5901 4.95481Z" fill="#FCFCFC"/>
<path d="M15.0269 6.62308C14.9078 6.29908 14.5487 6.13293 14.2247 6.25198C13.9007 6.37102 13.7345 6.73018 13.8536 7.05418C14.1907 7.97163 14.375 8.96359 14.375 10C14.375 10.8597 14.2482 11.6886 14.0127 12.4697C13.9995 12.5132 13.9861 12.5566 13.9723 12.5998C13.9351 12.7163 13.8955 12.8316 13.8536 12.9458C13.7345 13.2698 13.9007 13.629 14.2247 13.748C14.5487 13.8671 14.9078 13.7009 15.0269 13.3769C15.075 13.2459 15.1205 13.1135 15.1631 12.9799C15.1789 12.9303 15.1944 12.8805 15.2095 12.8306C15.4799 11.9337 15.625 10.9832 15.625 10C15.625 8.81434 15.414 7.67656 15.0269 6.62308Z" fill="#FCFCFC"/>
</svg>
